<mxfile host="app.diagrams.net" modified="2024-05-10T09:52:13.452Z" agent="Mozilla/5.0 (Windows NT 10.0; Win64; x64) AppleWebKit/537.36 (KHTML, like Gecko) Chrome/124.0.0.0 Safari/537.36" etag="oyKx_CxAMJPJ4Aenh67E" version="24.3.1" type="google">
  <diagram name="Página-1" id="WR2a9uNVL7GURd5JY-Vy">
    <mxGraphModel grid="1" page="1" gridSize="10" guides="1" tooltips="1" connect="1" arrows="1" fold="1" pageScale="1" pageWidth="827" pageHeight="1169" math="0" shadow="0">
      <root>
        <mxCell id="0" />
        <mxCell id="1" parent="0" />
        <mxCell id="5sNoOrrvdIrFRkjxcOED-10" style="edgeStyle=orthogonalEdgeStyle;rounded=0;orthogonalLoop=1;jettySize=auto;html=1;" edge="1" parent="1" source="5sNoOrrvdIrFRkjxcOED-1" target="5sNoOrrvdIrFRkjxcOED-3">
          <mxGeometry relative="1" as="geometry" />
        </mxCell>
        <mxCell id="5sNoOrrvdIrFRkjxcOED-1" value="Inicio" style="ellipse;whiteSpace=wrap;html=1;" vertex="1" parent="1">
          <mxGeometry x="354" y="20" width="120" height="80" as="geometry" />
        </mxCell>
        <mxCell id="5sNoOrrvdIrFRkjxcOED-12" style="edgeStyle=orthogonalEdgeStyle;rounded=0;orthogonalLoop=1;jettySize=auto;html=1;entryX=0.5;entryY=1;entryDx=0;entryDy=0;" edge="1" parent="1" source="5sNoOrrvdIrFRkjxcOED-2" target="5sNoOrrvdIrFRkjxcOED-8">
          <mxGeometry relative="1" as="geometry" />
        </mxCell>
        <mxCell id="5sNoOrrvdIrFRkjxcOED-2" value="Capacidad del camión" style="rounded=0;whiteSpace=wrap;html=1;" vertex="1" parent="1">
          <mxGeometry x="354" y="240" width="120" height="60" as="geometry" />
        </mxCell>
        <mxCell id="5sNoOrrvdIrFRkjxcOED-11" style="edgeStyle=orthogonalEdgeStyle;rounded=0;orthogonalLoop=1;jettySize=auto;html=1;" edge="1" parent="1" source="5sNoOrrvdIrFRkjxcOED-3" target="5sNoOrrvdIrFRkjxcOED-2">
          <mxGeometry relative="1" as="geometry" />
        </mxCell>
        <mxCell id="5sNoOrrvdIrFRkjxcOED-3" value="Ejecución caso 2 y 3" style="rounded=0;whiteSpace=wrap;html=1;" vertex="1" parent="1">
          <mxGeometry x="354" y="130" width="120" height="60" as="geometry" />
        </mxCell>
        <mxCell id="5sNoOrrvdIrFRkjxcOED-15" style="edgeStyle=orthogonalEdgeStyle;rounded=0;orthogonalLoop=1;jettySize=auto;html=1;" edge="1" parent="1" source="5sNoOrrvdIrFRkjxcOED-5" target="5sNoOrrvdIrFRkjxcOED-14">
          <mxGeometry relative="1" as="geometry">
            <Array as="points">
              <mxPoint x="500" y="510" />
              <mxPoint x="500" y="450" />
            </Array>
          </mxGeometry>
        </mxCell>
        <mxCell id="5sNoOrrvdIrFRkjxcOED-17" style="edgeStyle=orthogonalEdgeStyle;rounded=0;orthogonalLoop=1;jettySize=auto;html=1;" edge="1" parent="1" source="5sNoOrrvdIrFRkjxcOED-5" target="5sNoOrrvdIrFRkjxcOED-16">
          <mxGeometry relative="1" as="geometry">
            <Array as="points">
              <mxPoint x="500" y="510" />
              <mxPoint x="500" y="570" />
            </Array>
          </mxGeometry>
        </mxCell>
        <mxCell id="5sNoOrrvdIrFRkjxcOED-19" style="edgeStyle=orthogonalEdgeStyle;rounded=0;orthogonalLoop=1;jettySize=auto;html=1;" edge="1" parent="1" source="5sNoOrrvdIrFRkjxcOED-5" target="5sNoOrrvdIrFRkjxcOED-18">
          <mxGeometry relative="1" as="geometry" />
        </mxCell>
        <mxCell id="5sNoOrrvdIrFRkjxcOED-5" value="Cálculo de valores" style="rounded=0;whiteSpace=wrap;html=1;" vertex="1" parent="1">
          <mxGeometry x="354" y="480" width="120" height="60" as="geometry" />
        </mxCell>
        <mxCell id="5sNoOrrvdIrFRkjxcOED-6" value="De valor 0" style="shape=card;whiteSpace=wrap;html=1;" vertex="1" parent="1">
          <mxGeometry x="540" y="190" width="80" height="100" as="geometry" />
        </mxCell>
        <mxCell id="5sNoOrrvdIrFRkjxcOED-7" value="" style="endArrow=none;dashed=1;html=1;dashPattern=1 3;strokeWidth=2;rounded=0;exitX=1;exitY=0.75;exitDx=0;exitDy=0;" edge="1" parent="1" source="5sNoOrrvdIrFRkjxcOED-2" target="5sNoOrrvdIrFRkjxcOED-6">
          <mxGeometry width="50" height="50" relative="1" as="geometry">
            <mxPoint x="410" y="390" as="sourcePoint" />
            <mxPoint x="460" y="340" as="targetPoint" />
          </mxGeometry>
        </mxCell>
        <mxCell id="5sNoOrrvdIrFRkjxcOED-13" style="edgeStyle=orthogonalEdgeStyle;rounded=0;orthogonalLoop=1;jettySize=auto;html=1;entryX=0.5;entryY=0;entryDx=0;entryDy=0;" edge="1" parent="1" source="5sNoOrrvdIrFRkjxcOED-8" target="5sNoOrrvdIrFRkjxcOED-5">
          <mxGeometry relative="1" as="geometry" />
        </mxCell>
        <mxCell id="5sNoOrrvdIrFRkjxcOED-8" value="00000000000000" style="swimlane;horizontal=0;whiteSpace=wrap;html=1;rotation=-180;" vertex="1" parent="1">
          <mxGeometry x="354" y="340" width="119" height="110" as="geometry" />
        </mxCell>
        <mxCell id="5sNoOrrvdIrFRkjxcOED-9" value="Tabla&amp;nbsp;&lt;div&gt;Bidimensional&lt;/div&gt;" style="text;html=1;align=center;verticalAlign=middle;resizable=0;points=[];autosize=1;strokeColor=none;fillColor=none;" vertex="1" parent="5sNoOrrvdIrFRkjxcOED-8">
          <mxGeometry x="-1" y="30" width="100" height="40" as="geometry" />
        </mxCell>
        <mxCell id="5sNoOrrvdIrFRkjxcOED-14" value="Celda Superior: Representa la capacidad actual sin el nuevo elemento." style="shape=card;whiteSpace=wrap;html=1;align=center;" vertex="1" parent="1">
          <mxGeometry x="570" y="410" width="120" height="80" as="geometry" />
        </mxCell>
        <mxCell id="5sNoOrrvdIrFRkjxcOED-16" value="&lt;div&gt;&lt;br&gt;&lt;/div&gt;&lt;div&gt;Resta del Peso del Elemento Nuevo: Calcula el valor de incluir el nuevo elemento.&lt;/div&gt;&lt;div&gt;&lt;br&gt;&lt;/div&gt;" style="shape=card;whiteSpace=wrap;html=1;align=center;" vertex="1" parent="1">
          <mxGeometry x="540" y="530" width="150" height="80" as="geometry" />
        </mxCell>
        <mxCell id="5sNoOrrvdIrFRkjxcOED-21" style="edgeStyle=orthogonalEdgeStyle;rounded=0;orthogonalLoop=1;jettySize=auto;html=1;" edge="1" parent="1" source="5sNoOrrvdIrFRkjxcOED-18" target="5sNoOrrvdIrFRkjxcOED-20">
          <mxGeometry relative="1" as="geometry" />
        </mxCell>
        <mxCell id="5sNoOrrvdIrFRkjxcOED-18" value="&lt;div&gt;Valor Máximo = max(Valor Celda Superior, Beneficio Acumulado - Peso Elemento Nuevo)&lt;/div&gt;" style="rounded=0;whiteSpace=wrap;html=1;" vertex="1" parent="1">
          <mxGeometry x="169" y="630" width="490" height="60" as="geometry" />
        </mxCell>
        <mxCell id="5sNoOrrvdIrFRkjxcOED-20" value="Fin" style="ellipse;whiteSpace=wrap;html=1;" vertex="1" parent="1">
          <mxGeometry x="354" y="720" width="120" height="80" as="geometry" />
        </mxCell>
      </root>
    </mxGraphModel>
  </diagram>
</mxfile>
